<?xml version="1.0" encoding="UTF-8" standalone="no"?>
<svg
   width="160.57799"
   height="144.44"
   viewBox="0 0 160.57798 144.44"
   fill="none"
   version="1.1"
   id="svg11"
   sodipodi:docname="logoFirmware.svg"
   inkscape:version="1.3 (0e150ed, 2023-07-21)"
   inkscape:export-filename="flFavicon.svg"
   inkscape:export-xdpi="28.696335"
   inkscape:export-ydpi="28.696335"
   xmlns:inkscape="http://www.inkscape.org/namespaces/inkscape"
   xmlns:sodipodi="http://sodipodi.sourceforge.net/DTD/sodipodi-0.dtd"
   xmlns="http://www.w3.org/2000/svg"
   xmlns:svg="http://www.w3.org/2000/svg">
  <sodipodi:namedview
     id="namedview11"
     pagecolor="#ffffff"
     bordercolor="#000000"
     borderopacity="0.25"
     inkscape:showpageshadow="2"
     inkscape:pageopacity="0.0"
     inkscape:pagecheckerboard="0"
     inkscape:deskcolor="#d1d1d1"
     inkscape:zoom="1.2177778"
     inkscape:cx="320.25547"
     inkscape:cy="130.15511"
     inkscape:window-width="1392"
     inkscape:window-height="1212"
     inkscape:window-x="2284"
     inkscape:window-y="119"
     inkscape:window-maximized="0"
     inkscape:current-layer="svg11" />
  <g
     clip-path="url(#clip0_38_1927)"
     id="g11"
     transform="translate(-144.596)">
    <path
       fill-rule="evenodd"
       clip-rule="evenodd"
       d="m 272.577,144.44 h 32.597 l -6.775,-12.908 -11.556,-2.6 -11.363,-22.646 14.834,-24.9285 -5.886,-11.5986 h 4.348 l 7.856,-5.0706 V 60.05 h 3.286 V 42.6767 l -15.144,-4.7432 -3.903,-5.3732 H 261.416 L 246.711,48.9521 232.055,19.7449 144.596,0 202.787,65.3614 h -6.67 l -23.858,16.9225 -12.062,23.3641 -5.089,1.439 V 87.41 l 5.07,-3.3289 L 149.03,67.0907 V 115.11 l 15.354,-4.33 12.587,-24.3952 13.284,-9.4232 -19.398,39.0194 v 15.372 l 5.323,13.087 h 20.591 v -6.602 l -2.488,-5.231 -5.812,-3.552 v -3.038 l 11.968,-19.782 v 12.908 l 10.475,12.086 4.54,8.085 v 5.126 h 23.833 v -6.565 l -2.619,-5.898 -6.231,-3.366 -7.387,-10.938 5.671,-10.517 17.219,2.698 -4.046,22.234 -0.05,12.352 h 23.964 v -6.299 l -1.118,-4.423 -3.41,-3.328 2.599,-5.19 8.698,13.49 z m 8.77,-80.7522 h 5.638 l 3.57,-2.3037 V 60.05 h -2.927 v -6.0711 h 6.219 v -6.8431 l -12.809,-4.0083 -3.261,-4.4961 h -9.145 z m -18.691,-23.4217 -4.266,4.7576 21.249,42.3959 3.745,-6.2968 z m -13.018,14.5192 4.396,-4.9033 21.92,43.7338 -3.706,6.2296 z m -49.854,16.6472 -22.856,45.9685 v 12.766 l 3.335,8.196 h 10.036 l -0.723,-1.513 -7.176,-4.385 v -8.14 l 16.891,-27.9287 59.223,9.2827 20.134,31.22 v 1.464 h 16.478 l -0.797,-1.52 -11.624,-2.618 -0.648,-1.285 -37.556,-74.8542 -34.377,13.3467 z M 241.765,52.6313 227.917,25.0317 213.091,21.685 235.142,55.203 Z m -12.411,4.8194 -24.797,-37.6921 -17.674,-3.9894 35.664,44.3247 z m -12.745,4.9487 -39.247,-48.7795 -15.658,-3.5344 48.624,54.6213 -0.263,0.2339 z m -10.098,54.4826 v -13.205 l 15.849,2.483 -6.394,11.865 10.271,15.218 5.719,3.088 0.902,2.032 h -11.333 v -0.636 l -5.621,-10.006 z m 53.545,2.388 -5.168,-8.014 -2.948,-0.462 -4.018,22.115 v 5.454 h 11.679 l -0.377,-1.501 -5.361,-5.225 z m 1.366,-100.8899 h -0.006 V 28.515 H 280.87 V 18.3801 h -0.012 l -4.848,4.8544 -4.855,-4.8544 h -0.024 l -4.855,4.8544 z"
       fill="#e74860"
       id="path1" />
  </g>
  <defs
     id="defs11">
    <clipPath
       id="clip0_38_1927">
      <rect
         width="449.76999"
         height="259.996"
         fill="#ffffff"
         id="rect11"
         x="0"
         y="0" />
    </clipPath>
  </defs>
</svg>
